<svg width="14" height="8" viewBox="0 0 14 8" fill="none" xmlns="http://www.w3.org/2000/svg">
<path d="M9.12099 6.4L13.707 1.811C13.8792 1.62059 13.9715 1.37127 13.9649 1.11466C13.9583 0.858045 13.8533 0.613793 13.6716 0.432472C13.4899 0.251152 13.2454 0.146651 12.9888 0.140607C12.7322 0.134563 12.483 0.227437 12.293 0.400002L7.70699 4.986C7.51946 5.17347 7.26516 5.27879 6.99999 5.27879C6.73483 5.27879 6.48052 5.17347 6.29299 4.986L1.70699 0.400002C1.51935 0.212494 1.26491 0.107206 0.999639 0.1073C0.734368 0.107394 0.48 0.212862 0.292491 0.400502C0.104983 0.588143 -0.000304222 0.842586 -0.000210762 1.10786C-0.000116348 1.37313 0.10535 1.62749 0.292991 1.815L4.87899 6.4C5.44158 6.96242 6.2045 7.27836 6.99999 7.27836C7.79549 7.27836 8.55841 6.96242 9.12099 6.4Z" fill="#5C5F62"/>
</svg>
