<svg width="9" height="15" viewBox="0 0 9 15" fill="none" xmlns="http://www.w3.org/2000/svg">
<path d="M7.78965 14.2099C7.88338 14.117 7.95777 14.0064 8.00854 13.8845C8.05931 13.7627 8.08545 13.6319 8.08545 13.4999C8.08545 13.3679 8.05931 13.2372 8.00854 13.1154C7.95777 12.9935 7.88338 12.8829 7.78965 12.7899L3.20966 8.20994C3.11593 8.11697 3.04154 8.00637 2.99077 7.88451C2.94 7.76266 2.91386 7.63195 2.91386 7.49994C2.91386 7.36793 2.94 7.23722 2.99077 7.11536C3.04154 6.9935 3.11593 6.8829 3.20966 6.78994L7.78965 2.20994C7.88338 2.11697 7.95777 2.00637 8.00854 1.88451C8.05931 1.76266 8.08545 1.63195 8.08545 1.49994C8.08545 1.36793 8.05931 1.23722 8.00854 1.11536C7.95777 0.993502 7.88338 0.882901 7.78965 0.789938C7.60229 0.603687 7.34884 0.499146 7.08465 0.499146C6.82047 0.499146 6.56702 0.603687 6.37965 0.789938L1.78966 5.37994C1.22786 5.94244 0.912305 6.70494 0.912305 7.49994C0.912305 8.29494 1.22786 9.05744 1.78966 9.61994L6.37965 14.2099C6.56702 14.3962 6.82047 14.5007 7.08465 14.5007C7.34884 14.5007 7.60229 14.3962 7.78965 14.2099Z" fill="white"/>
</svg>
