<svg width="48" height="48" viewBox="0 0 48 48" fill="none" xmlns="http://www.w3.org/2000/svg">
<path d="M24.0001 0.666626C36.8871 0.666626 47.3334 11.1153 47.3334 24C47.3334 36.8846 36.8871 47.3333 24.0001 47.3333C11.1131 47.3333 0.666748 36.8846 0.666748 24C0.666748 11.1153 11.1131 0.666626 24.0001 0.666626ZM24.0001 4.55629C13.2784 4.55629 4.55642 13.2783 4.55642 24C4.55642 34.7216 13.2784 43.4436 24.0001 43.4436C34.7217 43.4436 43.4438 34.7216 43.4438 24C43.4438 13.2783 34.7217 4.55629 24.0001 4.55629ZM23.997 29.8384C25.2839 29.8384 26.3271 30.8819 26.3271 32.1687C26.3271 33.4556 25.2839 34.499 23.997 34.499C22.71 34.499 21.6667 33.4556 21.6667 32.1687C21.6667 30.8819 22.71 29.8384 23.997 29.8384ZM23.9872 12.3333C24.8732 12.3326 25.6059 12.9904 25.7223 13.8445L25.7386 14.0819L25.747 24.5856C25.7477 25.5521 24.9649 26.3363 23.9984 26.337C23.1125 26.3377 22.3796 25.68 22.2631 24.826L22.247 24.5884L22.2386 14.0847C22.2377 13.1182 23.0205 12.3341 23.9872 12.3333Z" fill="#F31F23"/>
</svg>
