<svg width="13" height="8" viewBox="0 0 13 8" fill="none" xmlns="http://www.w3.org/2000/svg">
<path d="M12.4456 1.43328L6.81742 7.04994C6.75042 7.11661 6.67783 7.16372 6.59967 7.19128C6.5215 7.21928 6.43774 7.23328 6.34841 7.23328C6.25907 7.23328 6.17532 7.21928 6.09715 7.19128C6.01898 7.16372 5.9464 7.11661 5.8794 7.04994L0.234506 1.43328C0.0781686 1.27772 0 1.08328 0 0.849943C0 0.61661 0.0837521 0.41661 0.251256 0.249943C0.41876 0.0832767 0.614182 -5.67436e-05 0.837521 -5.67436e-05C1.06086 -5.67436e-05 1.25628 0.0832767 1.42379 0.249943L6.34841 5.14994L11.273 0.249943C11.4294 0.0943875 11.6219 0.0166097 11.8506 0.0166097C12.0797 0.0166097 12.2781 0.0999432 12.4456 0.26661C12.6131 0.433276 12.6968 0.627721 12.6968 0.849943C12.6968 1.07217 12.6131 1.26661 12.4456 1.43328Z" fill="#1E53DA"/>
</svg>
