<svg width="48" height="48" viewBox="0 0 48 48" fill="none" xmlns="http://www.w3.org/2000/svg">
<circle cx="24" cy="24" r="23.5" stroke="#63A457"/>
<path d="M14.5894 24.6131C17.4665 24.9671 20.0975 22.8296 20.465 19.8401C20.8325 16.8506 17.411 13.969 18.653 10C12.4984 10.891 10.3774 15.8516 10.0429 18.5591C9.67537 21.5486 11.7124 24.2591 14.5894 24.6131Z" fill="#63A457" stroke="#63A457" stroke-width="1.5" stroke-linecap="round" stroke-linejoin="round"/>
<path d="M17.5009 36.9999C14.6133 29.9859 14.1558 23.7908 14.7003 18.9998L17.5009 36.9999ZM21.2629 33.5019C23.0254 37.0899 27.2825 38.0799 30.77 35.7129C34.2575 33.3459 34.808 26.7848 40.0011 24.4973C34.4585 18.3577 27.5465 20.5748 24.3889 22.7183C20.8999 25.0853 19.5004 29.9139 21.2629 33.5034" fill="#63A457"/>
<path d="M17.5009 36.9999C14.6133 29.9859 14.1558 23.7908 14.7003 18.9998M21.2629 33.5019C23.0254 37.0899 27.2825 38.0799 30.77 35.7129C34.2575 33.3459 34.808 26.7848 40.0011 24.4973C34.4585 18.3577 27.5465 20.5748 24.3889 22.7183C20.8999 25.0853 19.5004 29.9139 21.2629 33.5034" stroke="#63A457" stroke-width="1.5" stroke-linecap="round" stroke-linejoin="round"/>
<path d="M16.001 40C19.568 33.8559 23.8971 30.1449 28.0011 27.9999" stroke="#453628" stroke-width="1.5" stroke-linecap="round" stroke-linejoin="round"/>
</svg>
