<svg width="24" height="24" viewBox="0 0 24 24" fill="none" xmlns="http://www.w3.org/2000/svg">
<path d="M11.9296 2.01688C12.9966 2 14.0576 2.01 15.1173 2C15.1815 3.27569 15.6303 4.57514 16.5439 5.47706C17.4556 6.40148 18.7452 6.82463 20 6.96776V10.3236C18.8241 10.2842 17.6427 10.0342 16.5757 9.51665C16.1109 9.30164 15.678 9.02475 15.2543 8.74161C15.2487 11.1767 15.264 13.6087 15.239 16.0339C15.1754 17.1989 14.7993 18.3584 14.1365 19.3184C13.07 20.9166 11.2191 21.9586 9.31794 21.9911C8.15183 22.0592 6.98695 21.7342 5.99328 21.1354C4.34655 20.1428 3.18778 18.3259 3.01901 16.3758C2.99751 15.9628 2.99424 15.549 3.00923 15.1357C3.15599 13.55 3.9234 12.033 5.11458 11.0011C6.46474 9.79917 8.35607 9.22664 10.1269 9.5654C10.1434 10.7998 10.0951 12.033 10.0951 13.2675C9.28614 13 8.34078 13.075 7.6339 13.5769C7.1168 13.9252 6.72599 14.4375 6.52161 15.0351C6.35284 15.4576 6.40115 15.927 6.41093 16.3758C6.60477 17.7433 7.89134 18.8928 9.26474 18.7684C10.1752 18.7584 11.0478 18.2184 11.5223 17.4277C11.6758 17.1508 11.8477 16.8677 11.8568 16.542C11.9369 15.0513 11.9051 13.5669 11.9149 12.0762C11.9216 8.71661 11.9051 5.36643 11.9302 2.0175L11.9296 2.01688Z" fill="white"/>
</svg>
