<svg width="18" height="22" viewBox="0 0 18 22" fill="none" xmlns="http://www.w3.org/2000/svg">
<path d="M8.78754 13.1213C11.1773 13.1213 13.1208 11.1777 13.1208 8.78781C13.1208 6.39791 11.1773 4.45435 8.78754 4.45435C6.39773 4.45435 4.45425 6.39791 4.45425 8.78781C4.45425 11.1777 6.39773 13.1213 8.78754 13.1213ZM8.78754 6.62108C9.98244 6.62108 10.9542 7.59286 10.9542 8.78781C10.9542 9.98277 9.98244 10.9545 8.78754 10.9545C7.59264 10.9545 6.6209 9.98277 6.6209 8.78781C6.6209 7.59286 7.59264 6.62108 8.78754 6.62108Z" fill="#F9CD00"/>
<path d="M8.03834 21.4658C8.22181 21.5965 8.44144 21.6667 8.66667 21.6667C8.89189 21.6667 9.11152 21.5965 9.29499 21.4658C9.62432 21.2329 17.3647 15.6438 17.3332 8.66693C17.3332 3.8882 13.4452 0 8.66667 0C3.88814 0 9.53732e-05 3.8882 9.53732e-05 8.66152C-0.0313209 15.6438 7.70901 21.2329 8.03834 21.4658ZM8.66667 2.16673C12.2514 2.16673 15.1666 5.08207 15.1666 8.67235C15.1893 13.4803 10.413 17.7975 8.66667 19.2135C6.92144 17.7965 2.14399 13.4782 2.16674 8.66693C2.16674 5.08207 5.08196 2.16673 8.66667 2.16673Z" fill="#F9CD00"/>
</svg>
