<svg width="1512" height="754" viewBox="0 0 1512 754" fill="none" xmlns="http://www.w3.org/2000/svg">
<path d="M-13.5 752C2 739 68 707 86.1031 694.548C118 672.607 132.808 637.757 151 613.5C166.606 592.692 173.684 581.458 185.959 558.371C198.665 534.471 208.835 508.814 219.836 484.062C230.878 459.218 245.411 431.059 236.831 402.867C228.677 376.077 190.039 359.881 164.077 359.881C150.609 359.881 133.548 375.843 127.534 387.872C116.7 409.539 118.314 439.291 138.419 453.85C159.529 469.136 188.601 484.962 214.838 471.844C229.127 464.699 241.109 456.936 252.381 445.408C262.154 435.413 265.41 421.208 269.931 408.309C284.496 366.755 279.949 321.635 287.036 278.464C293.935 236.442 301.605 181.741 326.912 146.174C338.569 129.791 354.757 117.107 368.898 102.966C382.304 89.5607 397.077 75.6753 412.772 65.0901C441.07 46.0057 465.634 32.2295 500.743 30.1017C527.397 28.4864 554.875 31.1083 577.829 45.9853C605.376 63.8401 629.164 90.8386 659.357 103.966C698.052 120.79 741.032 155.8 784.93 156.393C831.038 157.016 873.379 145.812 903.5 108.5C920 75.5339 910.546 53.0356 903.5 40C896.592 27.221 879.328 11.5524 867 6.5C851.217 0.0313673 841.726 1.99996 824.746 1.99996C788.959 1.99996 764.022 26.6022 751.771 58.981C742.598 83.2226 741.892 121.987 764.877 138.843C794.58 160.625 829.473 175.146 864.844 185.05C884.989 190.691 911.224 189.938 932.155 189.938C956.291 189.938 980.269 188.077 1003.24 179.941C1012.31 176.73 1021.53 171.733 1024.12 161.947C1024.78 159.467 1058.47 90.6948 1060 89C1065.2 83.2246 1079.14 84.5135 1086 82C1123.01 68.4468 1124.77 92.3495 1164.5 99.5C1186.18 103.402 1205.17 142.789 1221.73 156.282C1246.61 176.555 1265.57 205.545 1282.26 232.59C1303.28 266.659 1310.52 308.779 1335.47 340.332C1357.46 368.146 1418.76 329.148 1421.44 299.679C1422.79 284.753 1419.66 266.273 1403.44 261.025C1390.58 256.862 1374.64 254.841 1364.46 265.024C1356.71 272.765 1348.96 282.028 1346.02 292.792C1338.29 321.031 1337.41 360.15 1348.91 387.65C1359.46 412.898 1373.96 437.106 1392.45 457.182C1409.01 475.164 1376.65 555.854 1395.5 571C1404.87 578.53 1433.18 583.806 1440.5 593.5C1448.83 604.518 1456.39 588.833 1465 600C1470.26 606.818 1503.29 567.812 1511.52 567.812C1534.3 567.812 1555.33 562.249 1577.5 557.815" stroke="white" stroke-width="3" stroke-linecap="round" stroke-linejoin="round" stroke-dasharray="30 30"/>
</svg>
