<svg width="50" height="50" viewBox="0 0 50 50" fill="none" xmlns="http://www.w3.org/2000/svg">
<path d="M25 0.5C20.1544 0.5 15.4175 1.9369 11.3885 4.62899C7.35953 7.32109 4.21931 11.1475 2.36496 15.6243C0.510615 20.101 0.0254338 25.0272 0.970772 29.7797C1.91611 34.5322 4.24951 38.8977 7.67589 42.3241C11.1023 45.7505 15.4678 48.0839 20.2203 49.0292C24.9728 49.9746 29.899 49.4894 34.3757 47.635C38.8525 45.7807 42.6789 42.6405 45.371 38.6115C48.0631 34.5825 49.5 29.8456 49.5 25C49.4931 18.5043 46.9097 12.2766 42.3165 7.68346C37.7234 3.0903 31.4957 0.50686 25 0.5ZM35.7564 20.6795L22.5641 33.8718C22.3891 34.047 22.1813 34.1861 21.9525 34.2809C21.7237 34.3757 21.4784 34.4245 21.2308 34.4245C20.9831 34.4245 20.7379 34.3757 20.5091 34.2809C20.2803 34.1861 20.0724 34.047 19.8974 33.8718L14.2436 28.218C13.8899 27.8643 13.6913 27.3847 13.6913 26.8846C13.6913 26.3845 13.8899 25.9049 14.2436 25.5512C14.5972 25.1976 15.0768 24.9989 15.5769 24.9989C16.077 24.9989 16.5567 25.1976 16.9103 25.5512L21.2308 29.8741L33.0897 18.0128C33.2648 17.8377 33.4727 17.6988 33.7015 17.604C33.9302 17.5093 34.1754 17.4605 34.4231 17.4605C34.6707 17.4605 34.9159 17.5093 35.1447 17.604C35.3735 17.6988 35.5813 17.8377 35.7564 18.0128C35.9315 18.1879 36.0704 18.3958 36.1652 18.6245C36.26 18.8533 36.3087 19.0985 36.3087 19.3461C36.3087 19.5938 36.26 19.839 36.1652 20.0678C36.0704 20.2965 35.9315 20.5044 35.7564 20.6795Z" fill="#32D418"/>
</svg>
